# xmcd
#
# Track frame offsets:
# 150
# 7196
# 13478
# 31421
# 51563
# 67603
# 101397
# 109107
# 120637
# 125195
# 141197
# 145763
# 158732
# 164360
# 170330
# 176529
# 181565
# 191300
# 201550
# 221171
# 228563
# 241593
# 242375
# 255999
# 264997
# 266183
# 273227
# 283409
# 290424
# 300184
# 309303
# 318346
# 328544
# 331914
# 340949
# 345151
#
# Disc length: 4800 seconds
#
# Revision: 0
# Processed by: cddbd v1.5.1PL2 Copyright (c) Steve Scherf et al.
# Submitted via: Audion 3.0.2 (http://www.panic.com/audion/)
#
DISCID=0712be24
DTITLE=wiid - urban
DYEAR=1900
DGENRE=
TTITLE0=;
TTITLE1=;
TTITLE2=;
TTITLE3=;
TTITLE4=;
TTITLE5=;
TTITLE6=;
TTITLE7=;
TTITLE8=;
TTITLE9=;
TTITLE10=;
TTITLE11=;
TTITLE12=;
TTITLE13=;
TTITLE14=;
TTITLE15=;
TTITLE16=;
TTITLE17=;
TTITLE18=;
TTITLE19=;
TTITLE20=;
TTITLE21=;
TTITLE22=;
TTITLE23=;
TTITLE24=;
TTITLE25=;
TTITLE26=;
TTITLE27=;
TTITLE28=;
TTITLE29=;
TTITLE30=;
TTITLE31=;
TTITLE32=;
TTITLE33=;
TTITLE34=;
TTITLE35=;
EXTD=
EXTT0=
EXTT1=
EXTT2=
EXTT3=
EXTT4=
EXTT5=
EXTT6=
EXTT7=
EXTT8=
EXTT9=
EXTT10=
EXTT11=
EXTT12=
EXTT13=
EXTT14=
EXTT15=
EXTT16=
EXTT17=
EXTT18=
EXTT19=
EXTT20=
EXTT21=
EXTT22=
EXTT23=
EXTT24=
EXTT25=
EXTT26=
EXTT27=
EXTT28=
EXTT29=
EXTT30=
EXTT31=
EXTT32=
EXTT33=
EXTT34=
EXTT35=
PLAYORDER=
